<svg xmlns="http://www.w3.org/2000/svg" viewBox="0 0 244.28 100.4"><defs><style>.cls-1{fill:#5d4696;}.cls-2{fill:#fff;}</style></defs><g id="Layer_2" data-name="Layer 2"><g id="Layer_1-2" data-name="Layer 1"><path class="cls-1" d="M194.08,0a50,50,0,0,0-18,3.33,50.23,50.23,0,0,0-36,0,50.23,50.23,0,0,0-36,0,50.23,50.23,0,0,0-36,0,50.2,50.2,0,1,0-18,97.07,49.93,49.93,0,0,0,18-3.33,50.23,50.23,0,0,0,36,0,50.23,50.23,0,0,0,36,0,50.23,50.23,0,0,0,36,0A50.2,50.2,0,1,0,194.08,0Zm-36,2a48.17,48.17,0,0,1,15.26,2.47,50.4,50.4,0,0,0-15.26,10.75A50.65,50.65,0,0,0,142.85,4.47,48.17,48.17,0,0,1,158.11,2Zm-36,0A48.17,48.17,0,0,1,137.4,4.47a50.4,50.4,0,0,0-15.26,10.75A50.65,50.65,0,0,0,106.88,4.47,48.17,48.17,0,0,1,122.14,2Zm-36,0a48.17,48.17,0,0,1,15.26,2.47A50.4,50.4,0,0,0,86.17,15.22,50.65,50.65,0,0,0,70.91,4.47,48.17,48.17,0,0,1,86.17,2Zm-36,96.4A48.2,48.2,0,1,1,65.46,4.47a50.19,50.19,0,0,0,0,91.45A47.9,47.9,0,0,1,50.2,98.4Zm36,0a47.9,47.9,0,0,1-15.26-2.48A50.44,50.44,0,0,0,86.17,85.18a50.2,50.2,0,0,0,15.26,10.74A47.9,47.9,0,0,1,86.17,98.4Zm36,0a47.9,47.9,0,0,1-15.26-2.48,50.44,50.44,0,0,0,15.26-10.74A50.2,50.2,0,0,0,137.4,95.92,47.9,47.9,0,0,1,122.14,98.4Zm36,0a47.9,47.9,0,0,1-15.26-2.48,50.44,50.44,0,0,0,15.26-10.74,50.2,50.2,0,0,0,15.26,10.74A47.9,47.9,0,0,1,158.11,98.4Zm1.37-14.68A50.41,50.41,0,0,0,169,68.15a16.66,16.66,0,0,1-1.81-.87,48.39,48.39,0,0,1-9.09,15,48.43,48.43,0,0,1-8.61-13.76,13.61,13.61,0,0,1-2.67-1.37,50.44,50.44,0,0,0,9.91,16.6,48.4,48.4,0,0,1-16.62,11.2,48.36,48.36,0,0,1-16.61-11.2,50.67,50.67,0,0,0,9-14.31q-.61,0-1.23,0l-.94,0a48.44,48.44,0,0,1-8.22,12.83A48.25,48.25,0,0,1,113.76,69h-2.17a50.46,50.46,0,0,0,9.18,14.68,48.4,48.4,0,0,1-16.62,11.2,48.36,48.36,0,0,1-16.61-11.2,50.49,50.49,0,0,0,9.07-14.43,17.89,17.89,0,0,1-2.23.15,48.55,48.55,0,0,1-8.21,12.81A48.25,48.25,0,0,1,77.79,69H75.62A50.46,50.46,0,0,0,84.8,83.72a48.4,48.4,0,0,1-16.62,11.2,48.2,48.2,0,0,1,0-89.44A48.4,48.4,0,0,1,84.8,16.68a50.25,50.25,0,0,0-9.54,15.57h2.16a48.16,48.16,0,0,1,8.75-14.1,48.36,48.36,0,0,1,8.76,14.12,17.18,17.18,0,0,1,2,.16V32a50.43,50.43,0,0,0-9.44-15.31,48.36,48.36,0,0,1,16.61-11.2,48.4,48.4,0,0,1,16.62,11.2,50.13,50.13,0,0,0-4.58,6l2.69-.4a49.52,49.52,0,0,1,3.26-4.09,48.37,48.37,0,0,1,8.75,14.1H131a21.41,21.41,0,0,1,2.14.12,50.32,50.32,0,0,0-9.58-15.69,48.36,48.36,0,0,1,16.61-11.2,48.4,48.4,0,0,1,16.62,11.2c-.71.79-1.39,1.62-2.05,2.46a10.69,10.69,0,0,1,1.94.76c.48-.6,1-1.18,1.48-1.75a48.36,48.36,0,0,1,9.47,16,18.61,18.61,0,0,1,1.84-.8,50.33,50.33,0,0,0-9.94-16.68,48.46,48.46,0,0,1,16.61-11.2,48.2,48.2,0,0,1,0,89.44A48.46,48.46,0,0,1,159.48,83.72Zm34.6,14.68a47.9,47.9,0,0,1-15.26-2.48,50.19,50.19,0,0,0,0-91.45A48.2,48.2,0,1,1,194.08,98.4Z"/><path class="cls-2" d="M53.52,62.12A12.81,12.81,0,0,1,49,57.41a13.11,13.11,0,0,1-1.71-6.64A12.72,12.72,0,0,1,49,44.23a12.3,12.3,0,0,1,4.56-4.58A11.91,11.91,0,0,1,59.61,38a8.67,8.67,0,0,1,4.83,1.46,8.88,8.88,0,0,1,3.38,4.35V38H78.35V63.44H67.82V58.79a8.52,8.52,0,0,1-8.21,5.06A11.52,11.52,0,0,1,53.52,62.12ZM66.3,54.5a5,5,0,0,0,1.52-3.38v-.4a4.87,4.87,0,0,0-1.57-3.41,4.82,4.82,0,0,0-3.39-1.4,5.05,5.05,0,0,0-5.06,5,4.78,4.78,0,0,0,1.51,3.56,4.92,4.92,0,0,0,3.55,1.45A4.71,4.71,0,0,0,66.3,54.5Z"/><path class="cls-2" d="M88.19,62a12.84,12.84,0,0,1-4.38-4.78,13.43,13.43,0,0,1,.07-12.88,12.45,12.45,0,0,1,4.51-4.68,11.49,11.49,0,0,1,6-1.71,9.43,9.43,0,0,1,4.93,1.21,8.43,8.43,0,0,1,3.28,3.85V30.43l10.58-1.55V63.44H102.64V58.79q-2.36,5.06-8.26,5.06A11.16,11.16,0,0,1,88.19,62Zm13-7.61a4.93,4.93,0,0,0,1.42-3.51v-.2a4.51,4.51,0,0,0-1.5-3.38,4.87,4.87,0,0,0-3.46-1.43,4.7,4.7,0,0,0-3.53,1.48,4.9,4.9,0,0,0-1.43,3.53,5,5,0,0,0,5,5A4.7,4.7,0,0,0,101.22,54.43Z"/><path class="cls-2" d="M123.91,62.17a12.61,12.61,0,0,1-5-4.61,12.66,12.66,0,0,1,5.06-18A15.23,15.23,0,0,1,131,38a11.86,11.86,0,0,1,6.34,1.63A10.22,10.22,0,0,1,141.22,44a14.49,14.49,0,0,1,1.3,6.24,5.77,5.77,0,0,1-.1,1.3l-15,2a4.41,4.41,0,0,0,2,2.53,7.09,7.09,0,0,0,3.56.78,18.25,18.25,0,0,0,7.36-1.75l1.25,6.71a25,25,0,0,1-10.22,2.06A15.81,15.81,0,0,1,123.91,62.17Zm10.85-15c-.54-2.1-1.8-3.15-3.81-3.15a3.42,3.42,0,0,0-2.85,1.35A5.76,5.76,0,0,0,127,48.92Z"/><path class="cls-2" d="M147.41,33.11a4.71,4.71,0,0,1-1.63-3.63,4.57,4.57,0,0,1,1.7-3.61,5.85,5.85,0,0,1,3.91-1.45,5.79,5.79,0,0,1,4,1.5,4.65,4.65,0,0,1,1.67,3.56,4.56,4.56,0,0,1-1.7,3.65,5.91,5.91,0,0,1-4,1.46A5.72,5.72,0,0,1,147.41,33.11Zm1,28a10.83,10.83,0,0,1-2.36-7.36V38.34H156.7v15a2.39,2.39,0,0,0,.63,1.78,2.2,2.2,0,0,0,1.63.63,4.11,4.11,0,0,0,2-.6l.55,7a7.69,7.69,0,0,1-2.88,1.3,14.44,14.44,0,0,1-3.68.46A8.24,8.24,0,0,1,148.44,61.14Z"/><path class="cls-2" d="M169.45,62.12a12.89,12.89,0,0,1-4.53-4.71,13.1,13.1,0,0,1-1.7-6.64,12.71,12.71,0,0,1,1.7-6.54,12.3,12.3,0,0,1,4.56-4.58A11.91,11.91,0,0,1,175.54,38a8.64,8.64,0,0,1,4.83,1.46,9,9,0,0,1,3.39,4.35V38h10.52V63.44H183.76V58.79a8.53,8.53,0,0,1-8.22,5.06A11.52,11.52,0,0,1,169.45,62.12Zm12.78-7.62a5,5,0,0,0,1.53-3.38v-.4a4.92,4.92,0,0,0-1.58-3.41,4.8,4.8,0,0,0-3.38-1.4,4.88,4.88,0,0,0-3.59,1.48,5,5,0,0,0,0,7.09,4.94,4.94,0,0,0,3.56,1.45A4.69,4.69,0,0,0,182.23,54.5Z"/></g></g></svg>