<svg id="Layer_1" data-name="Layer 1" xmlns="http://www.w3.org/2000/svg" width="43" height="38" viewBox="0 0 43 38"><title>planning-portal-icons</title><g id="search"><rect id="Rectangle_3980" data-name="Rectangle 3980" x="13.4167" y="11" width="16" height="16" fill="#fff" fill-opacity="0"/><path id="Path_2117" data-name="Path 2117" d="M27.3847,24.01l-2.293-2.287a5.3422,5.3422,0,0,0,1.14-3.3,5.4,5.4,0,1,0-5.4,5.4h0a5.3422,5.3422,0,0,0,3.3-1.14l2.286,2.293a.6774.6774,0,0,0,.958-.958Zm-10.596-5.587a4.047,4.047,0,1,1,4.051,4.043,4.047,4.047,0,0,1-4.051-4.043Z" fill="#fff"/></g><g id="Ellipse_335-2" data-name="Ellipse 335-2"><circle cx="21.4167" cy="19" r="14.5" fill="none"/><circle cx="21.4167" cy="19" r="14" fill="none" stroke="#fff"/></g></svg>