<?xml version="1.0" encoding="utf-8"?>
<!-- Generator: Adobe Illustrator 23.1.1, SVG Export Plug-In . SVG Version: 6.00 Build 0)  -->
<svg version="1.1" id="Layer_1" xmlns="http://www.w3.org/2000/svg" xmlns:xlink="http://www.w3.org/1999/xlink" x="0px" y="0px"
	 width="24px" height="24px" viewBox="0 0 24 24" style="enable-background:new 0 0 24 24;" xml:space="preserve">
<style type="text/css">
	.st0{fill:#FFFFFF;fill-opacity:0;}
	.st1{fill:#FFFFFF;}
</style>
<g>
	<g>
		<rect class="st0" width="24" height="24"/>
		<path class="st1" d="M8.6,22c-0.5,0-1-0.2-1.3-0.5L5.2,20c-1-0.8-1.2-2.2-0.5-3.2c0.4-0.5,0.5-1.2,0.2-1.9l-0.1-0.2
			c-0.2-0.6-0.6-1-1.1-1.2H3.6c-1.2-0.4-1.9-1.7-1.5-2.9L2.9,8c0.2-0.6,0.6-1.1,1.1-1.4c0.5-0.3,1.1-0.3,1.7-0.1
			C6.3,6.7,7,6.6,7.5,6.2l0.1-0.1c0.5-0.4,0.7-0.9,0.7-1.5V4.3c0-1.3,1-2.3,2.3-2.3h2.6c0.6,0,1.2,0.2,1.6,0.7
			c0.4,0.4,0.7,1.1,0.7,1.7v0.3c0,0.6,0.2,1.1,0.7,1.4l0.1,0.1c0.5,0.3,1,0.4,1.6,0.3l0.3-0.1c1.2-0.4,2.5,0.2,2.9,1.4
			c0,0,0,0.1,0,0.1l0.8,2.5c0.4,1.2-0.3,2.5-1.5,2.9l-0.2,0.1c-0.6,0.2-1.1,0.7-1.2,1.3c-0.2,0.6-0.1,1.2,0.2,1.6l0.3,0.4
			c0.7,1,0.5,2.5-0.5,3.2l-2,1.6c-1,0.8-2.4,0.6-3.1-0.4c0,0-0.1-0.1-0.1-0.1l-0.1-0.2c-0.3-0.5-0.9-0.8-1.5-0.8
			c-0.6,0-1.1,0.3-1.4,0.8L10.5,21c-0.3,0.5-0.9,0.9-1.5,1C8.9,22,8.7,22,8.6,22z M4.4,11.6c1.1,0.4,2,1.3,2.4,2.5v0.1
			c0.4,1.2,0.3,2.6-0.5,3.6c-0.1,0.1-0.1,0.4,0,0.5L8.5,20c0.1,0.1,0.3,0.1,0.4,0c0,0,0,0,0,0l0.2-0.3c1.2-1.7,3.5-2.1,5.2-1
			c0.4,0.3,0.7,0.6,1,1l0.1,0.2c0,0.1,0.1,0.1,0.2,0.1c0.1,0,0.1,0,0.2,0l2.1-1.6c0.1-0.1,0.2-0.3,0.1-0.5l-0.3-0.4
			c-0.7-1-0.9-2.3-0.5-3.4c0.4-1.2,1.3-2.2,2.5-2.6l0.2-0.1c0.2-0.1,0.3-0.3,0.2-0.4l-0.8-2.5c0-0.1-0.1-0.2-0.2-0.2
			c-0.1,0-0.1,0-0.2,0l-0.3,0.1C17.3,8.7,16,8.5,15,7.7l0-0.1c-0.9-0.7-1.5-1.8-1.5-3V4.3c0-0.1,0-0.2-0.1-0.3C13.4,4,13.3,4,13.2,4
			h-2.5c-0.2,0-0.3,0.2-0.3,0.3c0,0,0,0,0,0v0.2c0,1.2-0.6,2.4-1.5,3.1L8.7,7.8c-1,0.8-2.4,1-3.6,0.6c0,0-0.1,0-0.1,0
			c-0.1,0-0.1,0.1-0.1,0.1L4,11.1c-0.1,0.2,0,0.4,0.2,0.4L4.4,11.6z"/>
		<path class="st1" d="M12,15.5c-1.9,0-3.5-1.6-3.5-3.5s1.6-3.5,3.5-3.5s3.5,1.6,3.5,3.5S13.9,15.5,12,15.5z M12,10.5
			c-0.8,0-1.5,0.7-1.5,1.5s0.7,1.5,1.5,1.5s1.5-0.7,1.5-1.5S12.8,10.5,12,10.5z"/>
	</g>
</g>
</svg>
